<?xml version="1.0" ?><svg id="Layer_1" style="enable-background:new 0 0 128 128;" version="1.1" viewBox=" 10 10 128 128" height="52px" width="50px" xml:space="preserve" xmlns="http://www.w3.org/2000/svg" xmlns:xlink="http://www.w3.org/1999/xlink"><style type="text/css">
	.st0{opacity:0.2;fill-rule:evenodd;clip-rule:evenodd;}
	.st1{fill-rule:evenodd;clip-rule:evenodd;fill:#A48AEB;}
	.st2{fill-rule:evenodd;clip-rule:evenodd;fill:#CEBAFB;}
	.st3{fill-rule:evenodd;clip-rule:evenodd;fill:url(#SVGID_1_);}
	.st4{fill-rule:evenodd;clip-rule:evenodd;fill:#FFFFFF;}
</style><path class="st0" d="M34,79.7l93,4.4c1.2,0.1,1.4,1,0.4,2.1l-27,32.8c-0.9,1.1-2.6,2.1-3.8,1.9L5.5,109.7c-1.1-0.1-1.4-1.1-0.4-2.1  l25.2-25.9C31.2,80.6,32.8,79.7,34,79.7z"/><polygon class="st1" points="1.6,10 3.6,8 4,7.6 4.5,7.4 4.9,7.1 5.4,7 5.9,6.8 6.4,6.8 7,6.8 7.5,6.8 97.6,18.1 98.1,18.2   98.7,18.4 99.2,18.6 99.7,18.8 100.2,19.1 100.6,19.5 101.1,19.9 101.4,20.3 101.8,20.7 102.1,21.2 102.4,21.7 102.6,22.2   102.8,22.7 102.9,23.3 103,23.8 103.1,24.4 103.1,114.3 103,114.8 102.9,115.4 102.8,115.9 102.6,116.4 102.4,116.9 102.1,117.3   101.8,117.7 99.8,119.7 100.1,119.3 100.4,118.9 100.6,118.4 100.8,117.9 100.9,117.4 101,116.9 101,116.3 101,26.4 101,25.9   100.9,25.3 100.8,24.7 100.6,24.2 100.4,23.7 100.1,23.2 99.8,22.7 99.4,22.3 99,21.9 98.6,21.5 98.2,21.2 97.7,20.9 97.2,20.6   96.6,20.4 96.1,20.3 95.5,20.2 5.5,8.8 4.9,8.8 4.4,8.8 3.9,8.9 3.4,9 2.9,9.2 2.4,9.4 2,9.7 "/><polygon class="st2" points="1.6,10 2.6,9 3,8.7 3.4,8.4 3.9,8.2 4.4,8 4.9,7.9 5.4,7.8 5.9,7.8 6.5,7.8 96.6,19.2 97.1,19.3   97.7,19.4 98.2,19.6 98.7,19.9 99.2,20.2 99.6,20.5 100,20.9 100.4,21.3 100.8,21.7 101.1,22.2 101.4,22.7 101.6,23.2 101.8,23.7   101.9,24.3 102,24.8 102,25.4 102,115.3 102,115.9 101.9,116.4 101.8,116.9 101.6,117.4 101.4,117.9 101.1,118.3 100.8,118.7   99.8,119.7 100.1,119.3 100.4,118.9 100.6,118.4 100.8,117.9 100.9,117.4 101,116.9 101,116.3 101,26.4 101,25.9 100.9,25.3   100.8,24.7 100.6,24.2 100.4,23.7 100.1,23.2 99.8,22.7 99.4,22.3 99,21.9 98.6,21.5 98.2,21.2 97.7,20.9 97.2,20.6 96.6,20.4   96.1,20.3 95.5,20.2 5.5,8.8 4.9,8.8 4.4,8.8 3.9,8.9 3.4,9 2.9,9.2 2.4,9.4 2,9.7 "/><linearGradient gradientUnits="userSpaceOnUse" id="SVGID_1_" x1="57.8536" x2="43.1742" y1="12.7868" y2="117.2361"><stop offset="0" style="stop-color:#B5A2CE"/><stop offset="0.51" style="stop-color:#816EB2"/><stop offset="0.74" style="stop-color:#6F59A6"/><stop offset="1" style="stop-color:#6755A4"/></linearGradient><path class="st3" d="M5.5,8.8l90.1,11.3c3,0.4,5.5,3.2,5.5,6.3v89.9c0,3.1-2.5,5.3-5.5,4.9L5.5,109.9c-3-0.4-5.5-3.2-5.5-6.3V13.7  C0,10.7,2.5,8.5,5.5,8.8z"/><g><path class="st4" d="M81.5,83.6c-2.3-2-4.7-3.8-7.1-5.7c-4.8-3.7-9.1-4.3-12.7,0.7c-2,2.8-4.8,2.7-7.7,1.2   c-8.1-4.3-14.3-10.3-18-18.7c-1.6-3.7-1.6-6.9,2.2-9.1c2-1.2,4-2.6,3.9-5.5c-0.2-3.8-9.6-17.3-13.3-18.9c-1.5-0.7-3.1-0.8-4.6-0.4   c-8.7,2.1-12.3,8.9-8.9,17.5c10.3,25.7,28.4,44.4,53.4,57.1c1.4,0.7,3,1.1,3.8,1.4c5.7,0.5,12.3-4.3,14.3-9.4   C88.5,88.6,84.6,86.3,81.5,83.6z"/><path class="st4" d="M53.5,32.2c18.2,4.3,26.7,13.5,29,31.7c0.2,1.7-0.4,4.1,2,4.4c2.5,0.3,1.9-2.3,1.9-3.9   c0.2-17-14.9-33.9-32.4-36c-1.3,0.1-4.1-1.2-4.2,1.7C49.7,31.9,52,31.8,53.5,32.2z"/><path class="st4" d="M57.1,37.4c-1.8-0.4-4.1-1.4-4.5,1c-0.4,2.5,2.2,2.4,3.8,2.9c11.3,3.4,15.2,7.8,17,18.9   c0.3,1.6-0.3,4.1,2.5,3.9c2.1-0.1,1.3-2.3,1.5-3.6C77.5,50,68.3,39.7,57.1,37.4z"/><path class="st4" d="M58.1,46.1c-1.2-0.1-2.3,0-2.8,1.2c-0.6,1.8,0.7,2.3,2.1,2.7c4.6,1.1,7.1,4,7.5,8.5c0.1,1.2,0.9,2.3,2.1,2.3   c1.7-0.1,1.8-1.5,1.8-2.9C69,52.7,63.1,46.4,58.1,46.1z"/></g></svg>