<?xml version="1.0" ?><!DOCTYPE svg  PUBLIC '-//W3C//DTD SVG 1.1//EN'  'http://www.w3.org/Graphics/SVG/1.1/DTD/svg11.dtd'><svg enable-background="new 0 0 512 512" height="52px" id="Location" version="1.1" viewBox="0 0 512 512" width="45px" xml:space="preserve" xmlns="http://www.w3.org/2000/svg" xmlns:xlink="http://www.w3.org/1999/xlink"><linearGradient gradientUnits="userSpaceOnUse" id="SVGID_1_" x1="2.9878" x2="246.6796" y1="412.5713" y2="168.8794"><stop offset="0" style="stop-color:#FF7BAC"/><stop offset="1" style="stop-color:#00FFFF"/></linearGradient><polygon fill="url(#SVGID_1_)" points="190.416,441.543 59.249,468.832 59.249,139.905 190.416,112.615 "/><linearGradient gradientUnits="userSpaceOnUse" id="SVGID_2_" x1="265.3213" x2="509.0138" y1="412.5713" y2="168.8788"><stop offset="0" style="stop-color:#FF7BAC"/><stop offset="1" style="stop-color:#00FFFF"/></linearGradient><polygon fill="url(#SVGID_2_)" points="452.751,441.543 321.583,468.832 321.583,139.905 452.751,112.615 "/><linearGradient gradientUnits="userSpaceOnUse" id="SVGID_3_" x1="147.7988" x2="364.2011" y1="398.9258" y2="182.5235"><stop offset="0" style="stop-color:#00FFFF"/><stop offset="1" style="stop-color:#FF7BAC"/></linearGradient><polygon fill="url(#SVGID_3_)" points="190.416,441.543 321.583,468.832 321.583,139.905 190.416,112.615 "/><path d="M440.299,136.2c0,51.381-93.032,166.206-93.032,166.206S254.234,187.581,254.234,136.2  c0-51.38,41.651-93.032,93.032-93.032C398.646,43.168,440.299,84.82,440.299,136.2z" fill="#3F5EAB"/><path d="M347.267,93.943c-23.338,0-42.257,18.919-42.257,42.257s18.919,42.257,42.257,42.257  s42.257-18.919,42.257-42.257S370.604,93.943,347.267,93.943z M347.267,159.785c-13.025,0-23.585-10.56-23.585-23.585  s10.56-23.585,23.585-23.585s23.585,10.56,23.585,23.585S360.292,159.785,347.267,159.785z" fill="#FFFFFF"/></svg>