<?xml version="1.0" ?><svg viewBox="0 0 512 390" height="52px" width="45px" xmlns="http://www.w3.org/2000/svg"><defs><style>.cls-1{fill:#f1f5f7;}.cls-1,.cls-2,.cls-3{stroke:#000;stroke-linecap:round;stroke-linejoin:round;stroke-width:20px;}.cls-2{fill:#dce6ea;}.cls-3{fill:#f84437;}</style></defs><g data-name="Layer 2" id="Layer_2"><g id="gmail"><rect class="cls-1" height="370" width="369" x="71.5" y="10"/><path class="cls-2" d="M256,233.91,440.5,380V91.58Z"/><path class="cls-2" d="M256,233.91,71.51,380V91.58Z"/><path class="cls-3" d="M455.87,10H440.5L256,156.09,71.5,10H56.12A46.21,46.21,0,0,0,10,56.25V333.74A46.21,46.21,0,0,0,56.12,380H71.5V91.58L256,233.87,440.5,91.55V380h15.37A46.2,46.2,0,0,0,502,333.74V56.25A46.2,46.2,0,0,0,455.87,10Z"/></g></g></svg>